<mxfile host="app.diagrams.net" agent="Mozilla/5.0 (Macintosh; Intel Mac OS X 10_15_7) AppleWebKit/537.36 (KHTML, like Gecko) Chrome/128.0.0.0 Safari/537.36" version="24.7.10">
  <diagram name="第 1 页" id="ucJ6enQ3myS1yw3ZkuCO">
    <mxGraphModel dx="954" dy="605" grid="1" gridSize="10" guides="1" tooltips="1" connect="1" arrows="1" fold="1" page="1" pageScale="1" pageWidth="827" pageHeight="1169" math="0" shadow="0">
      <root>
        <mxCell id="0" />
        <mxCell id="1" parent="0" />
        <mxCell id="1rxhkEu7ZFzacFnzr0Hv-2" value="" style="rounded=0;whiteSpace=wrap;html=1;fillColor=#f5f5f5;fontColor=#333333;strokeColor=#666666;" vertex="1" parent="1">
          <mxGeometry x="672" y="1432.5" width="120" height="329" as="geometry" />
        </mxCell>
        <mxCell id="74LUju0W-xpcsgV9gZzd-70" value="" style="rounded=0;whiteSpace=wrap;html=1;fillColor=#e1d5e7;strokeColor=#9673a6;" parent="1" vertex="1">
          <mxGeometry x="352" y="568.5" width="700" height="238.5" as="geometry" />
        </mxCell>
        <mxCell id="74LUju0W-xpcsgV9gZzd-16" value="" style="rounded=0;whiteSpace=wrap;html=1;fillColor=#fff2cc;gradientColor=#ffd966;strokeColor=#d6b656;" parent="1" vertex="1">
          <mxGeometry x="372" y="648.5" width="300" height="150" as="geometry" />
        </mxCell>
        <mxCell id="74LUju0W-xpcsgV9gZzd-17" value="&lt;b&gt;&lt;font color=&quot;#0000ff&quot;&gt;物联网&lt;/font&gt;&lt;/b&gt;" style="text;html=1;align=center;verticalAlign=middle;resizable=0;points=[];autosize=1;strokeColor=none;fillColor=none;" parent="1" vertex="1">
          <mxGeometry x="495" y="644.5" width="60" height="30" as="geometry" />
        </mxCell>
        <mxCell id="74LUju0W-xpcsgV9gZzd-18" value="" style="rounded=0;whiteSpace=wrap;html=1;fillColor=#d0cee2;strokeColor=#56517e;" parent="1" vertex="1">
          <mxGeometry x="1293" y="100" width="190" height="70" as="geometry" />
        </mxCell>
        <mxCell id="74LUju0W-xpcsgV9gZzd-19" value="生产执行" style="text;html=1;align=center;verticalAlign=middle;resizable=0;points=[];autosize=1;strokeColor=none;fillColor=none;" parent="1" vertex="1">
          <mxGeometry x="1353" y="97" width="70" height="30" as="geometry" />
        </mxCell>
        <mxCell id="74LUju0W-xpcsgV9gZzd-20" value="MES" style="rounded=0;whiteSpace=wrap;html=1;fillColor=#f0a30a;fontColor=#000000;strokeColor=#BD7000;" parent="1" vertex="1">
          <mxGeometry x="1293" y="130" width="80" height="40" as="geometry" />
        </mxCell>
        <mxCell id="74LUju0W-xpcsgV9gZzd-21" value="APS" style="rounded=0;whiteSpace=wrap;html=1;fillColor=#b0e3e6;strokeColor=#0e8088;" parent="1" vertex="1">
          <mxGeometry x="1403" y="130" width="80" height="40" as="geometry" />
        </mxCell>
        <mxCell id="74LUju0W-xpcsgV9gZzd-22" value="边缘网关" style="rounded=0;whiteSpace=wrap;html=1;fillColor=#fad7ac;strokeColor=#b46504;" parent="1" vertex="1">
          <mxGeometry x="389" y="758.5" width="70" height="40" as="geometry" />
        </mxCell>
        <mxCell id="74LUju0W-xpcsgV9gZzd-23" value="边缘计算" style="rounded=0;whiteSpace=wrap;html=1;fillColor=#fad9d5;strokeColor=#ae4132;" parent="1" vertex="1">
          <mxGeometry x="498" y="757.5" width="70" height="40" as="geometry" />
        </mxCell>
        <mxCell id="74LUju0W-xpcsgV9gZzd-24" value="IOT平台" style="rounded=0;whiteSpace=wrap;html=1;fillColor=#f0a30a;fontColor=#000000;strokeColor=#BD7000;" parent="1" vertex="1">
          <mxGeometry x="390" y="696.5" width="70" height="40" as="geometry" />
        </mxCell>
        <mxCell id="74LUju0W-xpcsgV9gZzd-25" value="规则引擎" style="rounded=0;whiteSpace=wrap;html=1;fillColor=#f0a30a;fontColor=#000000;strokeColor=#BD7000;" parent="1" vertex="1">
          <mxGeometry x="497" y="696.5" width="69" height="40" as="geometry" />
        </mxCell>
        <mxCell id="74LUju0W-xpcsgV9gZzd-26" value="组态,报表" style="rounded=0;whiteSpace=wrap;html=1;fillColor=#f8cecc;strokeColor=#b85450;gradientColor=#ea6b66;" parent="1" vertex="1">
          <mxGeometry x="602" y="723.5" width="69" height="40" as="geometry" />
        </mxCell>
        <mxCell id="74LUju0W-xpcsgV9gZzd-31" value="&lt;font color=&quot;#ff3333&quot;&gt;&lt;b&gt;云&lt;/b&gt;&lt;/font&gt;" style="text;html=1;align=center;verticalAlign=middle;resizable=0;points=[];autosize=1;strokeColor=none;fillColor=none;" parent="1" vertex="1">
          <mxGeometry x="457.5" y="669.5" width="40" height="30" as="geometry" />
        </mxCell>
        <mxCell id="74LUju0W-xpcsgV9gZzd-32" value="&lt;font color=&quot;#ff3333&quot;&gt;&lt;b&gt;边&lt;/b&gt;&lt;/font&gt;" style="text;html=1;align=center;verticalAlign=middle;resizable=0;points=[];autosize=1;strokeColor=none;fillColor=none;" parent="1" vertex="1">
          <mxGeometry x="457" y="750.5" width="40" height="30" as="geometry" />
        </mxCell>
        <mxCell id="74LUju0W-xpcsgV9gZzd-33" value="&lt;font color=&quot;#ff3333&quot;&gt;&lt;b&gt;端&lt;/b&gt;&lt;/font&gt;" style="text;html=1;align=center;verticalAlign=middle;resizable=0;points=[];autosize=1;strokeColor=none;fillColor=none;" parent="1" vertex="1">
          <mxGeometry x="613" y="692.5" width="40" height="30" as="geometry" />
        </mxCell>
        <mxCell id="74LUju0W-xpcsgV9gZzd-55" value="" style="rounded=0;whiteSpace=wrap;html=1;fillColor=#d0cee2;strokeColor=#56517e;" parent="1" vertex="1">
          <mxGeometry x="1080" y="106" width="190" height="70" as="geometry" />
        </mxCell>
        <mxCell id="74LUju0W-xpcsgV9gZzd-56" value="能源管理" style="text;html=1;align=center;verticalAlign=middle;resizable=0;points=[];autosize=1;strokeColor=none;fillColor=none;" parent="1" vertex="1">
          <mxGeometry x="1145" y="105" width="70" height="30" as="geometry" />
        </mxCell>
        <mxCell id="74LUju0W-xpcsgV9gZzd-57" value="电解铝" style="rounded=0;whiteSpace=wrap;html=1;fillColor=#f0a30a;fontColor=#000000;strokeColor=#BD7000;" parent="1" vertex="1">
          <mxGeometry x="1081" y="136" width="62" height="40" as="geometry" />
        </mxCell>
        <mxCell id="74LUju0W-xpcsgV9gZzd-58" value="电池" style="rounded=0;whiteSpace=wrap;html=1;fillColor=#b0e3e6;strokeColor=#0e8088;" parent="1" vertex="1">
          <mxGeometry x="1148" y="136" width="58" height="40" as="geometry" />
        </mxCell>
        <mxCell id="74LUju0W-xpcsgV9gZzd-59" value="" style="rounded=0;whiteSpace=wrap;html=1;fillColor=#fff2cc;gradientColor=#ffd966;strokeColor=#d6b656;" parent="1" vertex="1">
          <mxGeometry x="732" y="648.5" width="300" height="150" as="geometry" />
        </mxCell>
        <mxCell id="74LUju0W-xpcsgV9gZzd-60" value="&lt;b&gt;&lt;font color=&quot;#0000ff&quot;&gt;主数据服务&lt;/font&gt;&lt;/b&gt;" style="text;html=1;align=center;verticalAlign=middle;resizable=0;points=[];autosize=1;strokeColor=none;fillColor=none;" parent="1" vertex="1">
          <mxGeometry x="844" y="644.5" width="80" height="30" as="geometry" />
        </mxCell>
        <mxCell id="74LUju0W-xpcsgV9gZzd-61" value="ETL" style="rounded=0;whiteSpace=wrap;html=1;fillColor=#fad7ac;strokeColor=#b46504;" parent="1" vertex="1">
          <mxGeometry x="734" y="758.5" width="70" height="40" as="geometry" />
        </mxCell>
        <mxCell id="74LUju0W-xpcsgV9gZzd-62" value="基础数据库" style="rounded=0;whiteSpace=wrap;html=1;fillColor=#fad9d5;strokeColor=#ae4132;" parent="1" vertex="1">
          <mxGeometry x="962" y="758.5" width="70" height="40" as="geometry" />
        </mxCell>
        <mxCell id="74LUju0W-xpcsgV9gZzd-69" value="消息总线" style="rounded=0;whiteSpace=wrap;html=1;fillColor=#fad9d5;strokeColor=#ae4132;" parent="1" vertex="1">
          <mxGeometry x="847" y="736.5" width="70" height="40" as="geometry" />
        </mxCell>
        <mxCell id="74LUju0W-xpcsgV9gZzd-71" value="MOM数据基座" style="text;html=1;align=center;verticalAlign=middle;resizable=0;points=[];autosize=1;strokeColor=none;fillColor=none;" parent="1" vertex="1">
          <mxGeometry x="656" y="564.5" width="100" height="30" as="geometry" />
        </mxCell>
        <mxCell id="74LUju0W-xpcsgV9gZzd-73" value="ODS/DWD/DWS" style="rounded=0;whiteSpace=wrap;html=1;fillColor=#fad9d5;strokeColor=#ae4132;" parent="1" vertex="1">
          <mxGeometry x="754" y="682.5" width="100" height="36" as="geometry" />
        </mxCell>
        <mxCell id="74LUju0W-xpcsgV9gZzd-75" value="" style="rounded=0;whiteSpace=wrap;html=1;fillColor=#d0cee2;strokeColor=#56517e;" parent="1" vertex="1">
          <mxGeometry x="1363" y="20" width="190" height="70" as="geometry" />
        </mxCell>
        <mxCell id="74LUju0W-xpcsgV9gZzd-76" value="DI" style="text;html=1;align=center;verticalAlign=middle;resizable=0;points=[];autosize=1;strokeColor=none;fillColor=none;" parent="1" vertex="1">
          <mxGeometry x="1438" y="20" width="40" height="30" as="geometry" />
        </mxCell>
        <mxCell id="74LUju0W-xpcsgV9gZzd-77" value="数据治理" style="rounded=0;whiteSpace=wrap;html=1;fillColor=#f0a30a;fontColor=#000000;strokeColor=#BD7000;" parent="1" vertex="1">
          <mxGeometry x="1364" y="50" width="59" height="40" as="geometry" />
        </mxCell>
        <mxCell id="74LUju0W-xpcsgV9gZzd-78" value="数据指标" style="rounded=0;whiteSpace=wrap;html=1;fillColor=#b0e3e6;strokeColor=#0e8088;" parent="1" vertex="1">
          <mxGeometry x="1428" y="50" width="61" height="40" as="geometry" />
        </mxCell>
        <mxCell id="74LUju0W-xpcsgV9gZzd-79" value="ODS/DWD/DWS" style="rounded=0;whiteSpace=wrap;html=1;fillColor=#fad9d5;strokeColor=#ae4132;" parent="1" vertex="1">
          <mxGeometry x="887" y="682.5" width="100" height="36" as="geometry" />
        </mxCell>
        <mxCell id="YK3TF0yHfjnwqOC-v7o8-1" value="数据报表" style="rounded=0;whiteSpace=wrap;html=1;fillColor=#d5e8d4;strokeColor=#82b366;" parent="1" vertex="1">
          <mxGeometry x="1492" y="50" width="61" height="40" as="geometry" />
        </mxCell>
        <mxCell id="YK3TF0yHfjnwqOC-v7o8-11" style="edgeStyle=orthogonalEdgeStyle;rounded=0;orthogonalLoop=1;jettySize=auto;html=1;entryX=0;entryY=0.5;entryDx=0;entryDy=0;" parent="1" source="YK3TF0yHfjnwqOC-v7o8-2" target="YK3TF0yHfjnwqOC-v7o8-9" edge="1">
          <mxGeometry relative="1" as="geometry" />
        </mxCell>
        <mxCell id="YK3TF0yHfjnwqOC-v7o8-2" value="" style="rounded=0;whiteSpace=wrap;html=1;fillColor=#f5f5f5;fontColor=#333333;strokeColor=#666666;" parent="1" vertex="1">
          <mxGeometry x="72" y="1433" width="120" height="329" as="geometry" />
        </mxCell>
        <mxCell id="YK3TF0yHfjnwqOC-v7o8-3" value="财务中台" style="text;html=1;align=center;verticalAlign=middle;resizable=0;points=[];autosize=1;strokeColor=none;fillColor=none;" parent="1" vertex="1">
          <mxGeometry x="47" y="1370" width="70" height="30" as="geometry" />
        </mxCell>
        <mxCell id="YK3TF0yHfjnwqOC-v7o8-4" value="上游业务系统" style="text;html=1;align=center;verticalAlign=middle;resizable=0;points=[];autosize=1;strokeColor=none;fillColor=none;" parent="1" vertex="1">
          <mxGeometry x="77" y="1442" width="100" height="30" as="geometry" />
        </mxCell>
        <mxCell id="YK3TF0yHfjnwqOC-v7o8-5" value="金融返佣服务" style="rounded=0;whiteSpace=wrap;html=1;fillColor=#dae8fc;strokeColor=#6c8ebf;" parent="1" vertex="1">
          <mxGeometry x="85" y="1482" width="84" height="30" as="geometry" />
        </mxCell>
        <mxCell id="YK3TF0yHfjnwqOC-v7o8-6" value="合同中心" style="rounded=0;whiteSpace=wrap;html=1;fillColor=#d5e8d4;strokeColor=#82b366;" parent="1" vertex="1">
          <mxGeometry x="85" y="1532" width="84" height="30" as="geometry" />
        </mxCell>
        <mxCell id="YK3TF0yHfjnwqOC-v7o8-7" value="门店租赁服务" style="rounded=0;whiteSpace=wrap;html=1;fillColor=#ffe6cc;strokeColor=#d79b00;" parent="1" vertex="1">
          <mxGeometry x="85" y="1582" width="84" height="30" as="geometry" />
        </mxCell>
        <mxCell id="YK3TF0yHfjnwqOC-v7o8-8" value="目录商城服务" style="rounded=0;whiteSpace=wrap;html=1;fillColor=#fff2cc;strokeColor=#d6b656;" parent="1" vertex="1">
          <mxGeometry x="85" y="1632" width="84" height="30" as="geometry" />
        </mxCell>
        <mxCell id="YK3TF0yHfjnwqOC-v7o8-9" value="" style="rounded=0;whiteSpace=wrap;html=1;fillColor=#60a917;strokeColor=#2D7600;fontColor=#ffffff;" parent="1" vertex="1">
          <mxGeometry x="230" y="1433" width="62" height="329" as="geometry" />
        </mxCell>
        <mxCell id="YK3TF0yHfjnwqOC-v7o8-10" value="交易中心" style="text;html=1;align=center;verticalAlign=middle;resizable=0;points=[];autosize=1;strokeColor=none;fillColor=none;" parent="1" vertex="1">
          <mxGeometry x="224" y="1442" width="70" height="30" as="geometry" />
        </mxCell>
        <mxCell id="YK3TF0yHfjnwqOC-v7o8-12" value="物流服务" style="rounded=0;whiteSpace=wrap;html=1;fillColor=#f8cecc;strokeColor=#b85450;" parent="1" vertex="1">
          <mxGeometry x="85" y="1674" width="84" height="30" as="geometry" />
        </mxCell>
        <mxCell id="1rxhkEu7ZFzacFnzr0Hv-5" style="edgeStyle=orthogonalEdgeStyle;rounded=0;orthogonalLoop=1;jettySize=auto;html=1;entryX=0;entryY=0.5;entryDx=0;entryDy=0;" edge="1" parent="1" source="YK3TF0yHfjnwqOC-v7o8-13" target="1rxhkEu7ZFzacFnzr0Hv-4">
          <mxGeometry relative="1" as="geometry" />
        </mxCell>
        <mxCell id="1rxhkEu7ZFzacFnzr0Hv-6" value="资产记录" style="edgeLabel;html=1;align=center;verticalAlign=middle;resizable=0;points=[];" vertex="1" connectable="0" parent="1rxhkEu7ZFzacFnzr0Hv-5">
          <mxGeometry x="-0.2157" y="2" relative="1" as="geometry">
            <mxPoint y="1" as="offset" />
          </mxGeometry>
        </mxCell>
        <mxCell id="YK3TF0yHfjnwqOC-v7o8-13" value="" style="rounded=0;whiteSpace=wrap;html=1;fillColor=#fa6800;fontColor=#000000;strokeColor=#C73500;" parent="1" vertex="1">
          <mxGeometry x="336" y="1540" width="278" height="49" as="geometry" />
        </mxCell>
        <mxCell id="YK3TF0yHfjnwqOC-v7o8-14" value="资产服务" style="text;html=1;align=center;verticalAlign=middle;resizable=0;points=[];autosize=1;strokeColor=none;fillColor=none;" parent="1" vertex="1">
          <mxGeometry x="428" y="1540" width="70" height="30" as="geometry" />
        </mxCell>
        <mxCell id="YK3TF0yHfjnwqOC-v7o8-15" value="" style="rounded=0;whiteSpace=wrap;html=1;fillColor=#f0a30a;fontColor=#000000;strokeColor=#BD7000;" parent="1" vertex="1">
          <mxGeometry x="335" y="1435" width="278" height="90" as="geometry" />
        </mxCell>
        <mxCell id="YK3TF0yHfjnwqOC-v7o8-16" value="前置系统" style="text;html=1;align=center;verticalAlign=middle;resizable=0;points=[];autosize=1;strokeColor=none;fillColor=none;" parent="1" vertex="1">
          <mxGeometry x="435" y="1433" width="70" height="30" as="geometry" />
        </mxCell>
        <mxCell id="1rxhkEu7ZFzacFnzr0Hv-14" style="edgeStyle=orthogonalEdgeStyle;rounded=0;orthogonalLoop=1;jettySize=auto;html=1;entryX=0;entryY=0.75;entryDx=0;entryDy=0;" edge="1" parent="1" source="YK3TF0yHfjnwqOC-v7o8-17" target="1rxhkEu7ZFzacFnzr0Hv-13">
          <mxGeometry relative="1" as="geometry" />
        </mxCell>
        <mxCell id="1rxhkEu7ZFzacFnzr0Hv-15" value="暂估入账&lt;div&gt;发票入账&lt;/div&gt;" style="edgeLabel;html=1;align=center;verticalAlign=middle;resizable=0;points=[];" vertex="1" connectable="0" parent="1rxhkEu7ZFzacFnzr0Hv-14">
          <mxGeometry x="-0.354" relative="1" as="geometry">
            <mxPoint x="7" as="offset" />
          </mxGeometry>
        </mxCell>
        <mxCell id="YK3TF0yHfjnwqOC-v7o8-17" value="" style="rounded=0;whiteSpace=wrap;html=1;fillColor=#a0522d;fontColor=#ffffff;strokeColor=#6D1F00;" parent="1" vertex="1">
          <mxGeometry x="336" y="1682" width="276" height="78" as="geometry" />
        </mxCell>
        <mxCell id="YK3TF0yHfjnwqOC-v7o8-18" value="" style="rounded=0;whiteSpace=wrap;html=1;fillColor=#e3c800;fontColor=#000000;strokeColor=#B09500;" parent="1" vertex="1">
          <mxGeometry x="335" y="1465" width="85" height="60" as="geometry" />
        </mxCell>
        <mxCell id="YK3TF0yHfjnwqOC-v7o8-19" value="前置发票" style="text;html=1;align=center;verticalAlign=middle;resizable=0;points=[];autosize=1;strokeColor=none;fillColor=none;" parent="1" vertex="1">
          <mxGeometry x="341" y="1463" width="70" height="30" as="geometry" />
        </mxCell>
        <mxCell id="YK3TF0yHfjnwqOC-v7o8-20" value="" style="rounded=0;whiteSpace=wrap;html=1;fillColor=#6d8764;fontColor=#ffffff;strokeColor=#3A5431;" parent="1" vertex="1">
          <mxGeometry x="520" y="1465" width="93" height="60" as="geometry" />
        </mxCell>
        <mxCell id="YK3TF0yHfjnwqOC-v7o8-21" value="前置付款" style="text;html=1;align=center;verticalAlign=middle;resizable=0;points=[];autosize=1;strokeColor=none;fillColor=none;" parent="1" vertex="1">
          <mxGeometry x="532" y="1463" width="70" height="30" as="geometry" />
        </mxCell>
        <mxCell id="YK3TF0yHfjnwqOC-v7o8-22" value="" style="rounded=0;whiteSpace=wrap;html=1;fillColor=#647687;fontColor=#ffffff;strokeColor=#314354;" parent="1" vertex="1">
          <mxGeometry x="336" y="1605" width="120" height="60" as="geometry" />
        </mxCell>
        <mxCell id="YK3TF0yHfjnwqOC-v7o8-23" value="对账服务" style="text;html=1;align=center;verticalAlign=middle;resizable=0;points=[];autosize=1;strokeColor=none;fillColor=none;" parent="1" vertex="1">
          <mxGeometry x="359" y="1600" width="70" height="30" as="geometry" />
        </mxCell>
        <mxCell id="1rxhkEu7ZFzacFnzr0Hv-8" style="edgeStyle=orthogonalEdgeStyle;rounded=0;orthogonalLoop=1;jettySize=auto;html=1;entryX=0;entryY=0.5;entryDx=0;entryDy=0;" edge="1" parent="1" source="YK3TF0yHfjnwqOC-v7o8-24" target="1rxhkEu7ZFzacFnzr0Hv-7">
          <mxGeometry relative="1" as="geometry">
            <Array as="points">
              <mxPoint x="630" y="1617" />
              <mxPoint x="630" y="1617" />
            </Array>
          </mxGeometry>
        </mxCell>
        <mxCell id="1rxhkEu7ZFzacFnzr0Hv-9" value="发票验证" style="edgeLabel;html=1;align=center;verticalAlign=middle;resizable=0;points=[];" vertex="1" connectable="0" parent="1rxhkEu7ZFzacFnzr0Hv-8">
          <mxGeometry x="0.05" relative="1" as="geometry">
            <mxPoint x="-5" as="offset" />
          </mxGeometry>
        </mxCell>
        <mxCell id="1rxhkEu7ZFzacFnzr0Hv-11" style="edgeStyle=orthogonalEdgeStyle;rounded=0;orthogonalLoop=1;jettySize=auto;html=1;entryX=0;entryY=0.5;entryDx=0;entryDy=0;" edge="1" parent="1" source="YK3TF0yHfjnwqOC-v7o8-24" target="1rxhkEu7ZFzacFnzr0Hv-10">
          <mxGeometry relative="1" as="geometry">
            <Array as="points">
              <mxPoint x="630" y="1659" />
              <mxPoint x="630" y="1659" />
            </Array>
          </mxGeometry>
        </mxCell>
        <mxCell id="1rxhkEu7ZFzacFnzr0Hv-12" value="发票识别" style="edgeLabel;html=1;align=center;verticalAlign=middle;resizable=0;points=[];" vertex="1" connectable="0" parent="1rxhkEu7ZFzacFnzr0Hv-11">
          <mxGeometry x="0.1" y="-1" relative="1" as="geometry">
            <mxPoint x="-5" as="offset" />
          </mxGeometry>
        </mxCell>
        <mxCell id="YK3TF0yHfjnwqOC-v7o8-24" value="" style="rounded=0;whiteSpace=wrap;html=1;fillColor=#76608a;fontColor=#ffffff;strokeColor=#432D57;" parent="1" vertex="1">
          <mxGeometry x="492" y="1605" width="120" height="60" as="geometry" />
        </mxCell>
        <mxCell id="YK3TF0yHfjnwqOC-v7o8-25" value="发票服务" style="text;html=1;align=center;verticalAlign=middle;resizable=0;points=[];autosize=1;strokeColor=none;fillColor=none;" parent="1" vertex="1">
          <mxGeometry x="522" y="1605" width="70" height="30" as="geometry" />
        </mxCell>
        <mxCell id="YK3TF0yHfjnwqOC-v7o8-26" value="结算中心" style="text;html=1;align=center;verticalAlign=middle;resizable=0;points=[];autosize=1;strokeColor=none;fillColor=none;" parent="1" vertex="1">
          <mxGeometry x="434" y="1683" width="70" height="30" as="geometry" />
        </mxCell>
        <mxCell id="deLBg8jlPW3kkQXr_3VO-2" value="用户中心" style="rounded=0;whiteSpace=wrap;html=1;fillColor=#ffe6cc;strokeColor=#d79b00;" parent="1" vertex="1">
          <mxGeometry x="442" y="598.5" width="80" height="44" as="geometry" />
        </mxCell>
        <mxCell id="deLBg8jlPW3kkQXr_3VO-3" value="燃煤" style="rounded=0;whiteSpace=wrap;html=1;fillColor=#b0e3e6;strokeColor=#0e8088;" parent="1" vertex="1">
          <mxGeometry x="1211" y="136" width="58" height="40" as="geometry" />
        </mxCell>
        <mxCell id="deLBg8jlPW3kkQXr_3VO-4" value="调度平台" style="rounded=0;whiteSpace=wrap;html=1;fillColor=#ffe6cc;strokeColor=#d79b00;" parent="1" vertex="1">
          <mxGeometry x="518" y="598.5" width="80" height="44" as="geometry" />
        </mxCell>
        <mxCell id="deLBg8jlPW3kkQXr_3VO-5" value="&amp;nbsp;网关" style="rounded=0;whiteSpace=wrap;html=1;fillColor=#ffe6cc;strokeColor=#d79b00;" parent="1" vertex="1">
          <mxGeometry x="598" y="598.5" width="80" height="44" as="geometry" />
        </mxCell>
        <mxCell id="deLBg8jlPW3kkQXr_3VO-6" value="MQ" style="rounded=0;whiteSpace=wrap;html=1;fillColor=#ffe6cc;strokeColor=#d79b00;" parent="1" vertex="1">
          <mxGeometry x="758" y="598.5" width="80" height="44" as="geometry" />
        </mxCell>
        <mxCell id="deLBg8jlPW3kkQXr_3VO-7" value="devops" style="rounded=0;whiteSpace=wrap;html=1;fillColor=#ffe6cc;strokeColor=#d79b00;" parent="1" vertex="1">
          <mxGeometry x="372" y="598.5" width="80" height="44" as="geometry" />
        </mxCell>
        <mxCell id="deLBg8jlPW3kkQXr_3VO-8" value="数据库" style="rounded=0;whiteSpace=wrap;html=1;fillColor=#ffe6cc;strokeColor=#d79b00;" parent="1" vertex="1">
          <mxGeometry x="838" y="598.5" width="80" height="44" as="geometry" />
        </mxCell>
        <mxCell id="deLBg8jlPW3kkQXr_3VO-9" value="微服务治理" style="rounded=0;whiteSpace=wrap;html=1;fillColor=#ffe6cc;strokeColor=#d79b00;" parent="1" vertex="1">
          <mxGeometry x="678" y="598.5" width="80" height="44" as="geometry" />
        </mxCell>
        <mxCell id="deLBg8jlPW3kkQXr_3VO-10" value="" style="rounded=0;whiteSpace=wrap;html=1;fillColor=#d5e8d4;strokeColor=#82b366;" parent="1" vertex="1">
          <mxGeometry x="352" y="420" width="700" height="148.5" as="geometry" />
        </mxCell>
        <mxCell id="deLBg8jlPW3kkQXr_3VO-11" value="&lt;span style=&quot;text-wrap: nowrap;&quot;&gt;EAM&lt;/span&gt;" style="rounded=0;whiteSpace=wrap;html=1;fillColor=#fff2cc;strokeColor=#d6b656;" parent="1" vertex="1">
          <mxGeometry x="352" y="508.5" width="88" height="60" as="geometry" />
        </mxCell>
        <mxCell id="deLBg8jlPW3kkQXr_3VO-14" value="&lt;span style=&quot;text-wrap: nowrap;&quot;&gt;QMS&lt;/span&gt;" style="rounded=0;whiteSpace=wrap;html=1;fillColor=#fff2cc;strokeColor=#d6b656;" parent="1" vertex="1">
          <mxGeometry x="709" y="508.5" width="91" height="60" as="geometry" />
        </mxCell>
        <mxCell id="deLBg8jlPW3kkQXr_3VO-16" value="&lt;span style=&quot;text-wrap: nowrap;&quot;&gt;MES&lt;/span&gt;" style="rounded=0;whiteSpace=wrap;html=1;fillColor=#fff2cc;strokeColor=#d6b656;" parent="1" vertex="1">
          <mxGeometry x="440" y="508.5" width="90" height="60" as="geometry" />
        </mxCell>
        <mxCell id="deLBg8jlPW3kkQXr_3VO-18" value="&lt;span style=&quot;text-wrap: nowrap;&quot;&gt;APS&lt;/span&gt;" style="rounded=0;whiteSpace=wrap;html=1;fillColor=#fff2cc;strokeColor=#d6b656;" parent="1" vertex="1">
          <mxGeometry x="530" y="508.5" width="90" height="60" as="geometry" />
        </mxCell>
        <mxCell id="deLBg8jlPW3kkQXr_3VO-20" value="&lt;span style=&quot;text-wrap: nowrap;&quot;&gt;OWL&lt;/span&gt;" style="rounded=0;whiteSpace=wrap;html=1;fillColor=#fff2cc;strokeColor=#d6b656;" parent="1" vertex="1">
          <mxGeometry x="620" y="508.5" width="90" height="60" as="geometry" />
        </mxCell>
        <mxCell id="deLBg8jlPW3kkQXr_3VO-22" value="OWL:（Organised Warehouse Logistics Services system）全称“有组织”的仓储物流协调服务平台，包含四大子系统&#xa;VMS（Vehicle Visitor Management system），车辆入场协同管理系统，&#xa;WMS（Warehouse Management system ），仓储管理系统，&#xa;LES（Logistics Execution system），物流拉动执行系统，&#xa;WCS（Warehouse Control system），仓储设备控制系统，&#xa;&#xa;EMS： 能源管理系统：电解铝，电池，燃煤&#xa;QMS:  质量关系系统：包括采购质量，生成过程质量，入库质量，出库质量管理&#xa;APS： 计划排产：比如燃煤发电&#xa;MES:  生产执行系统&#xa;EAM： 设备管理：设备巡检，设备维修，设备采购" style="shape=note;size=15;spacingLeft=5;align=left;whiteSpace=wrap;" parent="1" vertex="1">
          <mxGeometry x="540" y="80" width="478.5" height="176" as="geometry" />
        </mxCell>
        <mxCell id="deLBg8jlPW3kkQXr_3VO-23" value="" style="edgeStyle=none;html=1;endArrow=none;rounded=0;labelBackgroundColor=none;dashed=1;exitX=0.5;exitY=1;exitDx=0;exitDy=0;exitPerimeter=0;" parent="1" source="deLBg8jlPW3kkQXr_3VO-22" target="deLBg8jlPW3kkQXr_3VO-20" edge="1">
          <mxGeometry relative="1" as="geometry">
            <mxPoint x="1172" y="518.5" as="targetPoint" />
            <mxPoint x="1483" y="478.5" as="sourcePoint" />
          </mxGeometry>
        </mxCell>
        <mxCell id="AOYH0ofomih47d9FnGEl-1" value="CRM" style="rounded=0;whiteSpace=wrap;html=1;fillColor=#fff2cc;strokeColor=#d6b656;" parent="1" vertex="1">
          <mxGeometry x="354" y="438.5" width="120" height="60" as="geometry" />
        </mxCell>
        <mxCell id="AOYH0ofomih47d9FnGEl-2" value="SRM" style="rounded=0;whiteSpace=wrap;html=1;fillColor=#fff2cc;strokeColor=#d6b656;" parent="1" vertex="1">
          <mxGeometry x="471.5" y="438.5" width="120" height="60" as="geometry" />
        </mxCell>
        <mxCell id="AOYH0ofomih47d9FnGEl-3" value="" style="rounded=0;whiteSpace=wrap;html=1;fillColor=#fff2cc;strokeColor=#d6b656;" parent="1" vertex="1">
          <mxGeometry x="591.5" y="438.5" width="120" height="60" as="geometry" />
        </mxCell>
        <mxCell id="AOYH0ofomih47d9FnGEl-4" value="ERP" style="text;html=1;align=center;verticalAlign=middle;resizable=0;points=[];autosize=1;strokeColor=none;fillColor=none;" parent="1" vertex="1">
          <mxGeometry x="628" y="453.5" width="50" height="30" as="geometry" />
        </mxCell>
        <mxCell id="AOYH0ofomih47d9FnGEl-7" value="工业物联网平台项目： 项目的定位在智能制造中作为数据基座，解决的问题是数据采集难，数据上云难，解决数据孤岛问题和设备监控控制。通过数字化自动化，减少人工成本，备件成本和停产损失。&#xa;项目分了三个字产品。提供边缘OT/IT业务数据采集控制，数据上云；提供物联网平台接收数据，平台数据存储，数据处理，数据流转业务系统；提供了组态是心啊数据展示和设备控制。&#xa;边缘数据采集产品：提供了数据采集网关服务，主要的难点是接入各种各样的数据协议，采集设备和系统数据。特别边缘计算。&#xa;云平台产品主要提供了数据的接收，处理，存储，转发。难点是实时接收采集的设备数据，QOS在数万到十万不等；第二个难点需要实时进行数据解析，校验，和业务处理第三个难点是实时数据需要实时存储(存储方案选型和设计)。数据实时转发多场景，和稳定性。&#xa;组态产品：提供了数据源管理和大屏绘制，数据展示和设备控制能力。通过实时接入iot数据源，实时监控设备/产线状态；通过数据库数据源，可以查询报表看历史趋势和汇总记录。通过接入边缘网关实时控制设备。&#xa;" style="shape=note;size=15;spacingLeft=5;align=left;whiteSpace=wrap;fontStyle=1" parent="1" vertex="1">
          <mxGeometry x="21" y="40" width="359" height="290" as="geometry" />
        </mxCell>
        <mxCell id="AOYH0ofomih47d9FnGEl-8" value="CRM: 客户关系管理系统：商机，线索&#xa;SRM: 供应商关系管理系统：资质，信誉&#xa;ERP : 金蝶，拥有，SAP&#xa;" style="shape=note;size=15;spacingLeft=5;align=left;whiteSpace=wrap;" parent="1" vertex="1">
          <mxGeometry x="417.5" y="290" width="231" height="76" as="geometry" />
        </mxCell>
        <mxCell id="AOYH0ofomih47d9FnGEl-9" value="" style="edgeStyle=none;html=1;endArrow=none;rounded=0;labelBackgroundColor=none;dashed=1;exitX=0.5;exitY=1;entryX=0.5;entryY=0;entryDx=0;entryDy=0;" parent="1" source="AOYH0ofomih47d9FnGEl-8" target="AOYH0ofomih47d9FnGEl-2" edge="1">
          <mxGeometry relative="1" as="geometry">
            <mxPoint x="120" y="615" as="targetPoint" />
          </mxGeometry>
        </mxCell>
        <mxCell id="AOYH0ofomih47d9FnGEl-10" value="BI" style="rounded=0;whiteSpace=wrap;html=1;fillColor=#f8cecc;strokeColor=#b85450;" parent="1" vertex="1">
          <mxGeometry x="804" y="430" width="120" height="60" as="geometry" />
        </mxCell>
        <mxCell id="2Ufif9IzzFKeSmk-fhTN-1" value="&lt;span style=&quot;text-wrap: nowrap;&quot;&gt;EMS&lt;/span&gt;" style="rounded=0;whiteSpace=wrap;html=1;fillColor=#fff2cc;strokeColor=#d6b656;" parent="1" vertex="1">
          <mxGeometry x="800" y="508.5" width="91" height="60" as="geometry" />
        </mxCell>
        <mxCell id="2Ufif9IzzFKeSmk-fhTN-2" value="" style="edgeStyle=none;html=1;endArrow=none;rounded=0;labelBackgroundColor=none;dashed=1;exitX=0.5;exitY=1;entryX=0.005;entryY=0.137;entryDx=0;entryDy=0;exitDx=0;exitDy=0;exitPerimeter=0;entryPerimeter=0;" parent="1" source="AOYH0ofomih47d9FnGEl-7" target="74LUju0W-xpcsgV9gZzd-70" edge="1">
          <mxGeometry relative="1" as="geometry">
            <mxPoint x="169" y="736.5" as="targetPoint" />
            <mxPoint x="231" y="394.5" as="sourcePoint" />
          </mxGeometry>
        </mxCell>
        <mxCell id="2Ufif9IzzFKeSmk-fhTN-3" value="DI" style="rounded=0;whiteSpace=wrap;html=1;fillColor=#f8cecc;strokeColor=#b85450;" parent="1" vertex="1">
          <mxGeometry x="924" y="430" width="120" height="60" as="geometry" />
        </mxCell>
        <mxCell id="1rxhkEu7ZFzacFnzr0Hv-3" value="下游系统" style="text;html=1;align=center;verticalAlign=middle;resizable=0;points=[];autosize=1;strokeColor=none;fillColor=none;" vertex="1" parent="1">
          <mxGeometry x="697" y="1442" width="70" height="30" as="geometry" />
        </mxCell>
        <mxCell id="1rxhkEu7ZFzacFnzr0Hv-4" value="SAP" style="rounded=0;whiteSpace=wrap;html=1;fillColor=#f8cecc;strokeColor=#b85450;" vertex="1" parent="1">
          <mxGeometry x="690" y="1549" width="84" height="30" as="geometry" />
        </mxCell>
        <mxCell id="1rxhkEu7ZFzacFnzr0Hv-7" value="税务系统" style="rounded=0;whiteSpace=wrap;html=1;fillColor=#f8cecc;strokeColor=#b85450;" vertex="1" parent="1">
          <mxGeometry x="692" y="1602" width="84" height="30" as="geometry" />
        </mxCell>
        <mxCell id="1rxhkEu7ZFzacFnzr0Hv-10" value="OCR识别" style="rounded=0;whiteSpace=wrap;html=1;fillColor=#f8cecc;strokeColor=#b85450;" vertex="1" parent="1">
          <mxGeometry x="692" y="1644" width="84" height="30" as="geometry" />
        </mxCell>
        <mxCell id="1rxhkEu7ZFzacFnzr0Hv-13" value="北斗资金系统" style="rounded=0;whiteSpace=wrap;html=1;fillColor=#f8cecc;strokeColor=#b85450;" vertex="1" parent="1">
          <mxGeometry x="692" y="1699" width="84" height="30" as="geometry" />
        </mxCell>
        <mxCell id="1rxhkEu7ZFzacFnzr0Hv-16" value="" style="rounded=0;whiteSpace=wrap;html=1;fillColor=#f8cecc;strokeColor=#b85450;" vertex="1" parent="1">
          <mxGeometry x="428" y="1465" width="85" height="60" as="geometry" />
        </mxCell>
        <mxCell id="1rxhkEu7ZFzacFnzr0Hv-17" value="对账配置" style="text;html=1;align=center;verticalAlign=middle;resizable=0;points=[];autosize=1;strokeColor=none;fillColor=none;" vertex="1" parent="1">
          <mxGeometry x="435.5" y="1465" width="70" height="30" as="geometry" />
        </mxCell>
        <mxCell id="1rxhkEu7ZFzacFnzr0Hv-20" value="暂估" style="rounded=0;whiteSpace=wrap;html=1;fillColor=#dae8fc;strokeColor=#6c8ebf;" vertex="1" parent="1">
          <mxGeometry x="337" y="1719" width="63" height="41" as="geometry" />
        </mxCell>
        <mxCell id="1rxhkEu7ZFzacFnzr0Hv-21" value="出账" style="rounded=0;whiteSpace=wrap;html=1;fillColor=#dae8fc;strokeColor=#6c8ebf;" vertex="1" parent="1">
          <mxGeometry x="407.5" y="1719" width="63" height="41" as="geometry" />
        </mxCell>
        <mxCell id="1rxhkEu7ZFzacFnzr0Hv-22" value="三单匹配" style="rounded=0;whiteSpace=wrap;html=1;fillColor=#dae8fc;strokeColor=#6c8ebf;" vertex="1" parent="1">
          <mxGeometry x="479" y="1719" width="63" height="41" as="geometry" />
        </mxCell>
        <mxCell id="1rxhkEu7ZFzacFnzr0Hv-23" value="轧差" style="rounded=0;whiteSpace=wrap;html=1;fillColor=#dae8fc;strokeColor=#6c8ebf;" vertex="1" parent="1">
          <mxGeometry x="549" y="1719" width="63" height="41" as="geometry" />
        </mxCell>
        <mxCell id="1rxhkEu7ZFzacFnzr0Hv-24" value="接入一个项目" style="text;html=1;align=center;verticalAlign=middle;resizable=0;points=[];autosize=1;strokeColor=none;fillColor=none;" vertex="1" parent="1">
          <mxGeometry x="21" y="1790" width="100" height="30" as="geometry" />
        </mxCell>
        <mxCell id="1rxhkEu7ZFzacFnzr0Hv-30" value="交易中心接收数据" style="edgeStyle=orthogonalEdgeStyle;rounded=0;orthogonalLoop=1;jettySize=auto;html=1;" edge="1" parent="1" source="1rxhkEu7ZFzacFnzr0Hv-25" target="1rxhkEu7ZFzacFnzr0Hv-29">
          <mxGeometry relative="1" as="geometry" />
        </mxCell>
        <mxCell id="1rxhkEu7ZFzacFnzr0Hv-25" value="业务系统将交易记录接入交易中心" style="rounded=0;whiteSpace=wrap;html=1;fillColor=#ffe6cc;strokeColor=#d79b00;" vertex="1" parent="1">
          <mxGeometry x="121" y="1830" width="119" height="40" as="geometry" />
        </mxCell>
        <mxCell id="1rxhkEu7ZFzacFnzr0Hv-32" value="" style="edgeStyle=orthogonalEdgeStyle;rounded=0;orthogonalLoop=1;jettySize=auto;html=1;" edge="1" parent="1" source="1rxhkEu7ZFzacFnzr0Hv-29" target="1rxhkEu7ZFzacFnzr0Hv-31">
          <mxGeometry relative="1" as="geometry" />
        </mxCell>
        <mxCell id="1rxhkEu7ZFzacFnzr0Hv-29" value="1. 交易中心数据校验" style="rounded=0;whiteSpace=wrap;html=1;fillColor=#ffe6cc;strokeColor=#d79b00;" vertex="1" parent="1">
          <mxGeometry x="121" y="1910" width="119" height="40" as="geometry" />
        </mxCell>
        <mxCell id="1rxhkEu7ZFzacFnzr0Hv-34" value="" style="edgeStyle=orthogonalEdgeStyle;rounded=0;orthogonalLoop=1;jettySize=auto;html=1;" edge="1" parent="1" source="1rxhkEu7ZFzacFnzr0Hv-31" target="1rxhkEu7ZFzacFnzr0Hv-33">
          <mxGeometry relative="1" as="geometry" />
        </mxCell>
        <mxCell id="1rxhkEu7ZFzacFnzr0Hv-35" value="3. 如果是资产交易" style="edgeLabel;html=1;align=center;verticalAlign=middle;resizable=0;points=[];" vertex="1" connectable="0" parent="1rxhkEu7ZFzacFnzr0Hv-34">
          <mxGeometry x="-0.25" y="2" relative="1" as="geometry">
            <mxPoint as="offset" />
          </mxGeometry>
        </mxCell>
        <mxCell id="1rxhkEu7ZFzacFnzr0Hv-31" value="2. 交易中心数据不全" style="rounded=0;whiteSpace=wrap;html=1;fillColor=#ffe6cc;strokeColor=#d79b00;" vertex="1" parent="1">
          <mxGeometry x="121" y="1980" width="119" height="40" as="geometry" />
        </mxCell>
        <mxCell id="1rxhkEu7ZFzacFnzr0Hv-37" value="" style="edgeStyle=orthogonalEdgeStyle;rounded=0;orthogonalLoop=1;jettySize=auto;html=1;" edge="1" parent="1" source="1rxhkEu7ZFzacFnzr0Hv-33" target="1rxhkEu7ZFzacFnzr0Hv-36">
          <mxGeometry relative="1" as="geometry" />
        </mxCell>
        <mxCell id="1rxhkEu7ZFzacFnzr0Hv-38" value="4. 交易明细对账" style="edgeLabel;html=1;align=center;verticalAlign=middle;resizable=0;points=[];" vertex="1" connectable="0" parent="1rxhkEu7ZFzacFnzr0Hv-37">
          <mxGeometry x="-0.35" y="1" relative="1" as="geometry">
            <mxPoint as="offset" />
          </mxGeometry>
        </mxCell>
        <mxCell id="1rxhkEu7ZFzacFnzr0Hv-33" value="3. 交易中心到资产服务进行资产记录" style="rounded=0;whiteSpace=wrap;html=1;fillColor=#ffe6cc;strokeColor=#d79b00;" vertex="1" parent="1">
          <mxGeometry x="121" y="2060" width="119" height="40" as="geometry" />
        </mxCell>
        <mxCell id="1rxhkEu7ZFzacFnzr0Hv-42" value="" style="edgeStyle=orthogonalEdgeStyle;rounded=0;orthogonalLoop=1;jettySize=auto;html=1;" edge="1" parent="1" source="1rxhkEu7ZFzacFnzr0Hv-36" target="1rxhkEu7ZFzacFnzr0Hv-41">
          <mxGeometry relative="1" as="geometry" />
        </mxCell>
        <mxCell id="1rxhkEu7ZFzacFnzr0Hv-43" value="5. 交易记录进行结算" style="edgeLabel;html=1;align=center;verticalAlign=middle;resizable=0;points=[];" vertex="1" connectable="0" parent="1rxhkEu7ZFzacFnzr0Hv-42">
          <mxGeometry x="0.2" y="1" relative="1" as="geometry">
            <mxPoint as="offset" />
          </mxGeometry>
        </mxCell>
        <mxCell id="1rxhkEu7ZFzacFnzr0Hv-36" value="4. 交易中心将交易单明细发送给对账" style="rounded=0;whiteSpace=wrap;html=1;fillColor=#ffe6cc;strokeColor=#d79b00;" vertex="1" parent="1">
          <mxGeometry x="121" y="2140" width="119" height="40" as="geometry" />
        </mxCell>
        <mxCell id="1rxhkEu7ZFzacFnzr0Hv-39" value="1. 对账服务配置项目对账规则：周期，对账逻辑&#xa;2. 初始化项目表：分表存储和对账&#xa;3. 对账完成，出账到商户中心即可进行确认和发票上传&#xa;4. 商家确认和财务审核" style="shape=note;size=15;spacingLeft=5;align=left;whiteSpace=wrap;" vertex="1" parent="1">
          <mxGeometry x="294" y="1960" width="209" height="110" as="geometry" />
        </mxCell>
        <mxCell id="1rxhkEu7ZFzacFnzr0Hv-40" value="" style="edgeStyle=none;html=1;endArrow=none;rounded=0;labelBackgroundColor=none;dashed=1;exitX=0.5;exitY=1;entryX=1;entryY=0.5;entryDx=0;entryDy=0;" edge="1" source="1rxhkEu7ZFzacFnzr0Hv-39" parent="1" target="1rxhkEu7ZFzacFnzr0Hv-36">
          <mxGeometry relative="1" as="geometry">
            <mxPoint x="401" y="2160" as="targetPoint" />
          </mxGeometry>
        </mxCell>
        <mxCell id="1rxhkEu7ZFzacFnzr0Hv-48" value="暂估成功，三单匹配完成" style="edgeStyle=orthogonalEdgeStyle;rounded=0;orthogonalLoop=1;jettySize=auto;html=1;" edge="1" parent="1" source="1rxhkEu7ZFzacFnzr0Hv-41" target="1rxhkEu7ZFzacFnzr0Hv-47">
          <mxGeometry relative="1" as="geometry" />
        </mxCell>
        <mxCell id="1rxhkEu7ZFzacFnzr0Hv-41" value="5. 交易将记录发送结算中心" style="rounded=0;whiteSpace=wrap;html=1;fillColor=#ffe6cc;strokeColor=#d79b00;" vertex="1" parent="1">
          <mxGeometry x="121" y="2216" width="119" height="40" as="geometry" />
        </mxCell>
        <mxCell id="1rxhkEu7ZFzacFnzr0Hv-44" value="1. 结算中心接收数据，归到批次&#xa;2. 暂估日，进行暂估入账&#xa;3. 结算日，进行发票匹配，成功且暂估凭证成功则发票入账，&#xa;4. 匹配失败则看是否可以轧差，否则继续匹配。" style="shape=note;size=15;spacingLeft=5;align=left;whiteSpace=wrap;" vertex="1" parent="1">
          <mxGeometry x="323.5" y="2115" width="203" height="90" as="geometry" />
        </mxCell>
        <mxCell id="1rxhkEu7ZFzacFnzr0Hv-45" value="" style="edgeStyle=none;html=1;endArrow=none;rounded=0;labelBackgroundColor=none;dashed=1;exitX=0.5;exitY=1;entryX=1;entryY=0.5;entryDx=0;entryDy=0;" edge="1" source="1rxhkEu7ZFzacFnzr0Hv-44" parent="1" target="1rxhkEu7ZFzacFnzr0Hv-41">
          <mxGeometry relative="1" as="geometry">
            <mxPoint x="377" y="2270" as="targetPoint" />
          </mxGeometry>
        </mxCell>
        <mxCell id="1rxhkEu7ZFzacFnzr0Hv-47" value="6. 发票入账" style="rounded=0;whiteSpace=wrap;html=1;fillColor=#ffe6cc;strokeColor=#d79b00;" vertex="1" parent="1">
          <mxGeometry x="121" y="2298" width="119" height="40" as="geometry" />
        </mxCell>
        <mxCell id="1rxhkEu7ZFzacFnzr0Hv-49" value="" style="rounded=0;whiteSpace=wrap;html=1;fillColor=#f5f5f5;fontColor=#333333;strokeColor=#666666;" vertex="1" parent="1">
          <mxGeometry x="638" y="2442.5" width="120" height="329" as="geometry" />
        </mxCell>
        <mxCell id="1rxhkEu7ZFzacFnzr0Hv-50" style="edgeStyle=orthogonalEdgeStyle;rounded=0;orthogonalLoop=1;jettySize=auto;html=1;entryX=0;entryY=0.5;entryDx=0;entryDy=0;" edge="1" parent="1" source="1rxhkEu7ZFzacFnzr0Hv-51" target="1rxhkEu7ZFzacFnzr0Hv-58">
          <mxGeometry relative="1" as="geometry" />
        </mxCell>
        <mxCell id="1rxhkEu7ZFzacFnzr0Hv-51" value="" style="rounded=0;whiteSpace=wrap;html=1;fillColor=#f5f5f5;fontColor=#333333;strokeColor=#666666;" vertex="1" parent="1">
          <mxGeometry x="38" y="2443" width="120" height="329" as="geometry" />
        </mxCell>
        <mxCell id="1rxhkEu7ZFzacFnzr0Hv-52" value="财务中台通用化" style="text;html=1;align=center;verticalAlign=middle;resizable=0;points=[];autosize=1;strokeColor=none;fillColor=none;" vertex="1" parent="1">
          <mxGeometry x="7" y="2380" width="110" height="30" as="geometry" />
        </mxCell>
        <mxCell id="1rxhkEu7ZFzacFnzr0Hv-53" value="上游业务系统" style="text;html=1;align=center;verticalAlign=middle;resizable=0;points=[];autosize=1;strokeColor=none;fillColor=none;" vertex="1" parent="1">
          <mxGeometry x="43" y="2452" width="100" height="30" as="geometry" />
        </mxCell>
        <mxCell id="1rxhkEu7ZFzacFnzr0Hv-54" value="极氪快递" style="rounded=0;whiteSpace=wrap;html=1;fillColor=#dae8fc;strokeColor=#6c8ebf;" vertex="1" parent="1">
          <mxGeometry x="51" y="2492" width="84" height="30" as="geometry" />
        </mxCell>
        <mxCell id="1rxhkEu7ZFzacFnzr0Hv-55" value="" style="rounded=0;whiteSpace=wrap;html=1;fillColor=#d5e8d4;strokeColor=#82b366;" vertex="1" parent="1">
          <mxGeometry x="51" y="2542" width="84" height="30" as="geometry" />
        </mxCell>
        <mxCell id="1rxhkEu7ZFzacFnzr0Hv-56" value="" style="rounded=0;whiteSpace=wrap;html=1;fillColor=#ffe6cc;strokeColor=#d79b00;" vertex="1" parent="1">
          <mxGeometry x="51" y="2592" width="84" height="30" as="geometry" />
        </mxCell>
        <mxCell id="1rxhkEu7ZFzacFnzr0Hv-57" value="" style="rounded=0;whiteSpace=wrap;html=1;fillColor=#fff2cc;strokeColor=#d6b656;" vertex="1" parent="1">
          <mxGeometry x="51" y="2642" width="84" height="30" as="geometry" />
        </mxCell>
        <mxCell id="1rxhkEu7ZFzacFnzr0Hv-58" value="" style="rounded=0;whiteSpace=wrap;html=1;fillColor=#60a917;strokeColor=#2D7600;fontColor=#ffffff;" vertex="1" parent="1">
          <mxGeometry x="196" y="2443" width="62" height="329" as="geometry" />
        </mxCell>
        <mxCell id="1rxhkEu7ZFzacFnzr0Hv-59" value="收单中心" style="text;html=1;align=center;verticalAlign=middle;resizable=0;points=[];autosize=1;strokeColor=none;fillColor=none;" vertex="1" parent="1">
          <mxGeometry x="190" y="2452" width="70" height="30" as="geometry" />
        </mxCell>
        <mxCell id="1rxhkEu7ZFzacFnzr0Hv-60" value="" style="rounded=0;whiteSpace=wrap;html=1;fillColor=#f8cecc;strokeColor=#b85450;" vertex="1" parent="1">
          <mxGeometry x="51" y="2684" width="84" height="30" as="geometry" />
        </mxCell>
        <mxCell id="1rxhkEu7ZFzacFnzr0Hv-61" style="edgeStyle=orthogonalEdgeStyle;rounded=0;orthogonalLoop=1;jettySize=auto;html=1;entryX=0;entryY=0.5;entryDx=0;entryDy=0;" edge="1" parent="1" source="1rxhkEu7ZFzacFnzr0Hv-63" target="1rxhkEu7ZFzacFnzr0Hv-84">
          <mxGeometry relative="1" as="geometry" />
        </mxCell>
        <mxCell id="1rxhkEu7ZFzacFnzr0Hv-62" value="资产记录" style="edgeLabel;html=1;align=center;verticalAlign=middle;resizable=0;points=[];" vertex="1" connectable="0" parent="1rxhkEu7ZFzacFnzr0Hv-61">
          <mxGeometry x="-0.2157" y="2" relative="1" as="geometry">
            <mxPoint y="1" as="offset" />
          </mxGeometry>
        </mxCell>
        <mxCell id="1rxhkEu7ZFzacFnzr0Hv-63" value="" style="rounded=0;whiteSpace=wrap;html=1;fillColor=#fa6800;fontColor=#000000;strokeColor=#C73500;" vertex="1" parent="1">
          <mxGeometry x="302" y="2550" width="278" height="49" as="geometry" />
        </mxCell>
        <mxCell id="1rxhkEu7ZFzacFnzr0Hv-64" value="资产服务" style="text;html=1;align=center;verticalAlign=middle;resizable=0;points=[];autosize=1;strokeColor=none;fillColor=none;" vertex="1" parent="1">
          <mxGeometry x="394" y="2550" width="70" height="30" as="geometry" />
        </mxCell>
        <mxCell id="1rxhkEu7ZFzacFnzr0Hv-65" value="" style="rounded=0;whiteSpace=wrap;html=1;fillColor=#f0a30a;fontColor=#000000;strokeColor=#BD7000;" vertex="1" parent="1">
          <mxGeometry x="301" y="2445" width="278" height="90" as="geometry" />
        </mxCell>
        <mxCell id="1rxhkEu7ZFzacFnzr0Hv-66" value="前置系统" style="text;html=1;align=center;verticalAlign=middle;resizable=0;points=[];autosize=1;strokeColor=none;fillColor=none;" vertex="1" parent="1">
          <mxGeometry x="401" y="2443" width="70" height="30" as="geometry" />
        </mxCell>
        <mxCell id="1rxhkEu7ZFzacFnzr0Hv-67" style="edgeStyle=orthogonalEdgeStyle;rounded=0;orthogonalLoop=1;jettySize=auto;html=1;entryX=0;entryY=0.75;entryDx=0;entryDy=0;" edge="1" parent="1" source="1rxhkEu7ZFzacFnzr0Hv-69" target="1rxhkEu7ZFzacFnzr0Hv-87">
          <mxGeometry relative="1" as="geometry" />
        </mxCell>
        <mxCell id="1rxhkEu7ZFzacFnzr0Hv-68" value="暂估入账&lt;div&gt;发票入账&lt;/div&gt;" style="edgeLabel;html=1;align=center;verticalAlign=middle;resizable=0;points=[];" vertex="1" connectable="0" parent="1rxhkEu7ZFzacFnzr0Hv-67">
          <mxGeometry x="-0.354" relative="1" as="geometry">
            <mxPoint x="7" as="offset" />
          </mxGeometry>
        </mxCell>
        <mxCell id="1rxhkEu7ZFzacFnzr0Hv-120" style="edgeStyle=orthogonalEdgeStyle;rounded=0;orthogonalLoop=1;jettySize=auto;html=1;entryX=0;entryY=0.5;entryDx=0;entryDy=0;" edge="1" parent="1" target="1rxhkEu7ZFzacFnzr0Hv-119">
          <mxGeometry relative="1" as="geometry">
            <mxPoint x="580" y="2754" as="sourcePoint" />
          </mxGeometry>
        </mxCell>
        <mxCell id="1rxhkEu7ZFzacFnzr0Hv-121" value="收付款" style="edgeLabel;html=1;align=center;verticalAlign=middle;resizable=0;points=[];" vertex="1" connectable="0" parent="1rxhkEu7ZFzacFnzr0Hv-120">
          <mxGeometry x="-0.0933" y="-3" relative="1" as="geometry">
            <mxPoint as="offset" />
          </mxGeometry>
        </mxCell>
        <mxCell id="1rxhkEu7ZFzacFnzr0Hv-69" value="" style="rounded=0;whiteSpace=wrap;html=1;fillColor=#a0522d;fontColor=#ffffff;strokeColor=#6D1F00;" vertex="1" parent="1">
          <mxGeometry x="302" y="2692" width="276" height="78" as="geometry" />
        </mxCell>
        <mxCell id="1rxhkEu7ZFzacFnzr0Hv-70" value="" style="rounded=0;whiteSpace=wrap;html=1;fillColor=#e3c800;fontColor=#000000;strokeColor=#B09500;" vertex="1" parent="1">
          <mxGeometry x="301" y="2475" width="139" height="60" as="geometry" />
        </mxCell>
        <mxCell id="1rxhkEu7ZFzacFnzr0Hv-71" value="结算&lt;span style=&quot;background-color: initial;&quot;&gt;工作台&lt;/span&gt;" style="text;html=1;align=center;verticalAlign=middle;resizable=0;points=[];autosize=1;strokeColor=none;fillColor=none;" vertex="1" parent="1">
          <mxGeometry x="323.5" y="2474" width="80" height="30" as="geometry" />
        </mxCell>
        <mxCell id="1rxhkEu7ZFzacFnzr0Hv-72" value="" style="rounded=0;whiteSpace=wrap;html=1;fillColor=#6d8764;fontColor=#ffffff;strokeColor=#3A5431;" vertex="1" parent="1">
          <mxGeometry x="440" y="2475" width="139" height="60" as="geometry" />
        </mxCell>
        <mxCell id="1rxhkEu7ZFzacFnzr0Hv-73" value="商家工作台" style="text;html=1;align=center;verticalAlign=middle;resizable=0;points=[];autosize=1;strokeColor=none;fillColor=none;" vertex="1" parent="1">
          <mxGeometry x="470" y="2473" width="80" height="30" as="geometry" />
        </mxCell>
        <mxCell id="1rxhkEu7ZFzacFnzr0Hv-74" value="" style="rounded=0;whiteSpace=wrap;html=1;fillColor=#f8cecc;strokeColor=#b85450;" vertex="1" parent="1">
          <mxGeometry x="302" y="2615" width="120" height="60" as="geometry" />
        </mxCell>
        <mxCell id="1rxhkEu7ZFzacFnzr0Hv-75" value="配置中心" style="text;html=1;align=center;verticalAlign=middle;resizable=0;points=[];autosize=1;strokeColor=none;fillColor=none;" vertex="1" parent="1">
          <mxGeometry x="325" y="2610" width="70" height="30" as="geometry" />
        </mxCell>
        <mxCell id="1rxhkEu7ZFzacFnzr0Hv-76" style="edgeStyle=orthogonalEdgeStyle;rounded=0;orthogonalLoop=1;jettySize=auto;html=1;entryX=0;entryY=0.5;entryDx=0;entryDy=0;" edge="1" parent="1" source="1rxhkEu7ZFzacFnzr0Hv-80" target="1rxhkEu7ZFzacFnzr0Hv-85">
          <mxGeometry relative="1" as="geometry">
            <Array as="points">
              <mxPoint x="596" y="2627" />
              <mxPoint x="596" y="2627" />
            </Array>
          </mxGeometry>
        </mxCell>
        <mxCell id="1rxhkEu7ZFzacFnzr0Hv-77" value="发票验证" style="edgeLabel;html=1;align=center;verticalAlign=middle;resizable=0;points=[];" vertex="1" connectable="0" parent="1rxhkEu7ZFzacFnzr0Hv-76">
          <mxGeometry x="0.05" relative="1" as="geometry">
            <mxPoint x="-5" as="offset" />
          </mxGeometry>
        </mxCell>
        <mxCell id="1rxhkEu7ZFzacFnzr0Hv-78" style="edgeStyle=orthogonalEdgeStyle;rounded=0;orthogonalLoop=1;jettySize=auto;html=1;entryX=0;entryY=0.5;entryDx=0;entryDy=0;" edge="1" parent="1" source="1rxhkEu7ZFzacFnzr0Hv-80" target="1rxhkEu7ZFzacFnzr0Hv-86">
          <mxGeometry relative="1" as="geometry">
            <Array as="points">
              <mxPoint x="596" y="2669" />
              <mxPoint x="596" y="2669" />
            </Array>
          </mxGeometry>
        </mxCell>
        <mxCell id="1rxhkEu7ZFzacFnzr0Hv-79" value="发票识别" style="edgeLabel;html=1;align=center;verticalAlign=middle;resizable=0;points=[];" vertex="1" connectable="0" parent="1rxhkEu7ZFzacFnzr0Hv-78">
          <mxGeometry x="0.1" y="-1" relative="1" as="geometry">
            <mxPoint x="-5" as="offset" />
          </mxGeometry>
        </mxCell>
        <mxCell id="1rxhkEu7ZFzacFnzr0Hv-80" value="" style="rounded=0;whiteSpace=wrap;html=1;fillColor=#e1d5e7;strokeColor=#9673a6;" vertex="1" parent="1">
          <mxGeometry x="458" y="2615" width="120" height="60" as="geometry" />
        </mxCell>
        <mxCell id="1rxhkEu7ZFzacFnzr0Hv-81" value="发票服务" style="text;html=1;align=center;verticalAlign=middle;resizable=0;points=[];autosize=1;strokeColor=none;fillColor=none;" vertex="1" parent="1">
          <mxGeometry x="488" y="2615" width="70" height="30" as="geometry" />
        </mxCell>
        <mxCell id="1rxhkEu7ZFzacFnzr0Hv-82" value="结算中心" style="text;html=1;align=center;verticalAlign=middle;resizable=0;points=[];autosize=1;strokeColor=none;fillColor=none;" vertex="1" parent="1">
          <mxGeometry x="400" y="2693" width="70" height="30" as="geometry" />
        </mxCell>
        <mxCell id="1rxhkEu7ZFzacFnzr0Hv-83" value="下游系统" style="text;html=1;align=center;verticalAlign=middle;resizable=0;points=[];autosize=1;strokeColor=none;fillColor=none;" vertex="1" parent="1">
          <mxGeometry x="663" y="2452" width="70" height="30" as="geometry" />
        </mxCell>
        <mxCell id="1rxhkEu7ZFzacFnzr0Hv-84" value="SAP" style="rounded=0;whiteSpace=wrap;html=1;fillColor=#f8cecc;strokeColor=#b85450;" vertex="1" parent="1">
          <mxGeometry x="656" y="2559" width="84" height="30" as="geometry" />
        </mxCell>
        <mxCell id="1rxhkEu7ZFzacFnzr0Hv-85" value="税务系统" style="rounded=0;whiteSpace=wrap;html=1;fillColor=#f8cecc;strokeColor=#b85450;" vertex="1" parent="1">
          <mxGeometry x="658" y="2612" width="84" height="30" as="geometry" />
        </mxCell>
        <mxCell id="1rxhkEu7ZFzacFnzr0Hv-86" value="OCR识别" style="rounded=0;whiteSpace=wrap;html=1;fillColor=#f8cecc;strokeColor=#b85450;" vertex="1" parent="1">
          <mxGeometry x="658" y="2654" width="84" height="30" as="geometry" />
        </mxCell>
        <mxCell id="1rxhkEu7ZFzacFnzr0Hv-87" value="北斗财务系统" style="rounded=0;whiteSpace=wrap;html=1;fillColor=#f8cecc;strokeColor=#b85450;" vertex="1" parent="1">
          <mxGeometry x="658" y="2702" width="84" height="30" as="geometry" />
        </mxCell>
        <mxCell id="1rxhkEu7ZFzacFnzr0Hv-90" value="暂估" style="rounded=0;whiteSpace=wrap;html=1;fillColor=#dae8fc;strokeColor=#6c8ebf;" vertex="1" parent="1">
          <mxGeometry x="303" y="2729" width="63" height="41" as="geometry" />
        </mxCell>
        <mxCell id="1rxhkEu7ZFzacFnzr0Hv-91" value="出账" style="rounded=0;whiteSpace=wrap;html=1;fillColor=#dae8fc;strokeColor=#6c8ebf;" vertex="1" parent="1">
          <mxGeometry x="373.5" y="2729" width="63" height="41" as="geometry" />
        </mxCell>
        <mxCell id="1rxhkEu7ZFzacFnzr0Hv-92" value="三单匹配" style="rounded=0;whiteSpace=wrap;html=1;fillColor=#dae8fc;strokeColor=#6c8ebf;" vertex="1" parent="1">
          <mxGeometry x="445" y="2729" width="63" height="41" as="geometry" />
        </mxCell>
        <mxCell id="1rxhkEu7ZFzacFnzr0Hv-93" value="轧差" style="rounded=0;whiteSpace=wrap;html=1;fillColor=#dae8fc;strokeColor=#6c8ebf;" vertex="1" parent="1">
          <mxGeometry x="515" y="2729" width="63" height="41" as="geometry" />
        </mxCell>
        <mxCell id="1rxhkEu7ZFzacFnzr0Hv-97" style="edgeStyle=orthogonalEdgeStyle;rounded=0;orthogonalLoop=1;jettySize=auto;html=1;entryX=0.5;entryY=0;entryDx=0;entryDy=0;" edge="1" parent="1" source="1rxhkEu7ZFzacFnzr0Hv-95" target="1rxhkEu7ZFzacFnzr0Hv-96">
          <mxGeometry relative="1" as="geometry" />
        </mxCell>
        <mxCell id="1rxhkEu7ZFzacFnzr0Hv-98" value="MQ" style="edgeLabel;html=1;align=center;verticalAlign=middle;resizable=0;points=[];" vertex="1" connectable="0" parent="1rxhkEu7ZFzacFnzr0Hv-97">
          <mxGeometry x="-0.175" y="-1" relative="1" as="geometry">
            <mxPoint as="offset" />
          </mxGeometry>
        </mxCell>
        <mxCell id="1rxhkEu7ZFzacFnzr0Hv-95" value="上层业务系统" style="rounded=0;whiteSpace=wrap;html=1;fillColor=#dae8fc;strokeColor=#6c8ebf;" vertex="1" parent="1">
          <mxGeometry x="1022" y="1418" width="377" height="32" as="geometry" />
        </mxCell>
        <mxCell id="1rxhkEu7ZFzacFnzr0Hv-115" style="edgeStyle=orthogonalEdgeStyle;rounded=0;orthogonalLoop=1;jettySize=auto;html=1;" edge="1" parent="1" source="1rxhkEu7ZFzacFnzr0Hv-96" target="1rxhkEu7ZFzacFnzr0Hv-109">
          <mxGeometry relative="1" as="geometry" />
        </mxCell>
        <mxCell id="1rxhkEu7ZFzacFnzr0Hv-116" value="MQ 对账" style="edgeLabel;html=1;align=center;verticalAlign=middle;resizable=0;points=[];" vertex="1" connectable="0" parent="1rxhkEu7ZFzacFnzr0Hv-115">
          <mxGeometry x="-0.1276" y="4" relative="1" as="geometry">
            <mxPoint x="1" y="1" as="offset" />
          </mxGeometry>
        </mxCell>
        <mxCell id="1rxhkEu7ZFzacFnzr0Hv-96" value="" style="rounded=0;whiteSpace=wrap;html=1;fillColor=#60a917;fontColor=#ffffff;strokeColor=#2D7600;" vertex="1" parent="1">
          <mxGeometry x="1023" y="1490" width="237" height="60" as="geometry" />
        </mxCell>
        <mxCell id="1rxhkEu7ZFzacFnzr0Hv-99" value="交易中心" style="text;html=1;align=center;verticalAlign=middle;resizable=0;points=[];autosize=1;strokeColor=none;fillColor=none;" vertex="1" parent="1">
          <mxGeometry x="1100" y="1490" width="70" height="30" as="geometry" />
        </mxCell>
        <mxCell id="1rxhkEu7ZFzacFnzr0Hv-100" value="事务记录交易日志" style="rounded=0;whiteSpace=wrap;html=1;fillColor=#fad7ac;strokeColor=#b46504;" vertex="1" parent="1">
          <mxGeometry x="1023" y="1522" width="57" height="28" as="geometry" />
        </mxCell>
        <mxCell id="1rxhkEu7ZFzacFnzr0Hv-101" value="定时读取日志处理" style="rounded=0;whiteSpace=wrap;html=1;fillColor=#fad7ac;strokeColor=#b46504;" vertex="1" parent="1">
          <mxGeometry x="1203" y="1522" width="57" height="28" as="geometry" />
        </mxCell>
        <mxCell id="1rxhkEu7ZFzacFnzr0Hv-103" value="" style="rounded=0;whiteSpace=wrap;html=1;fillColor=#1ba1e2;fontColor=#ffffff;strokeColor=#006EAF;" vertex="1" parent="1">
          <mxGeometry x="1023" y="1581" width="120" height="60" as="geometry" />
        </mxCell>
        <mxCell id="1rxhkEu7ZFzacFnzr0Hv-104" style="edgeStyle=orthogonalEdgeStyle;rounded=0;orthogonalLoop=1;jettySize=auto;html=1;entryX=0.442;entryY=-0.008;entryDx=0;entryDy=0;entryPerimeter=0;" edge="1" parent="1" source="1rxhkEu7ZFzacFnzr0Hv-96" target="1rxhkEu7ZFzacFnzr0Hv-103">
          <mxGeometry relative="1" as="geometry" />
        </mxCell>
        <mxCell id="1rxhkEu7ZFzacFnzr0Hv-105" value="HTTP请求资产" style="edgeLabel;html=1;align=center;verticalAlign=middle;resizable=0;points=[];" vertex="1" connectable="0" parent="1rxhkEu7ZFzacFnzr0Hv-104">
          <mxGeometry x="-0.2012" y="-2" relative="1" as="geometry">
            <mxPoint x="1" as="offset" />
          </mxGeometry>
        </mxCell>
        <mxCell id="1rxhkEu7ZFzacFnzr0Hv-106" value="资产服务" style="text;html=1;align=center;verticalAlign=middle;resizable=0;points=[];autosize=1;strokeColor=none;fillColor=none;" vertex="1" parent="1">
          <mxGeometry x="1048" y="1581" width="70" height="30" as="geometry" />
        </mxCell>
        <mxCell id="1rxhkEu7ZFzacFnzr0Hv-107" value="事务记录资产日志" style="rounded=0;whiteSpace=wrap;html=1;fillColor=#fad7ac;strokeColor=#b46504;" vertex="1" parent="1">
          <mxGeometry x="1023" y="1613" width="57" height="28" as="geometry" />
        </mxCell>
        <mxCell id="1rxhkEu7ZFzacFnzr0Hv-108" value="定时读取日志处理" style="rounded=0;whiteSpace=wrap;html=1;fillColor=#fad7ac;strokeColor=#b46504;" vertex="1" parent="1">
          <mxGeometry x="1086" y="1613" width="57" height="28" as="geometry" />
        </mxCell>
        <mxCell id="1rxhkEu7ZFzacFnzr0Hv-109" value="" style="rounded=0;whiteSpace=wrap;html=1;fillColor=#1ba1e2;fontColor=#ffffff;strokeColor=#006EAF;" vertex="1" parent="1">
          <mxGeometry x="1220" y="1587" width="180" height="60" as="geometry" />
        </mxCell>
        <mxCell id="1rxhkEu7ZFzacFnzr0Hv-110" value="对账服务" style="text;html=1;align=center;verticalAlign=middle;resizable=0;points=[];autosize=1;strokeColor=none;fillColor=none;" vertex="1" parent="1">
          <mxGeometry x="1305" y="1588" width="70" height="30" as="geometry" />
        </mxCell>
        <mxCell id="1rxhkEu7ZFzacFnzr0Hv-111" value="事务记录对账日志" style="rounded=0;whiteSpace=wrap;html=1;fillColor=#fad7ac;strokeColor=#b46504;" vertex="1" parent="1">
          <mxGeometry x="1220" y="1619" width="57" height="28" as="geometry" />
        </mxCell>
        <mxCell id="1rxhkEu7ZFzacFnzr0Hv-112" value="定时读取日志处理" style="rounded=0;whiteSpace=wrap;html=1;fillColor=#fad7ac;strokeColor=#b46504;" vertex="1" parent="1">
          <mxGeometry x="1281" y="1619" width="57" height="28" as="geometry" />
        </mxCell>
        <mxCell id="1rxhkEu7ZFzacFnzr0Hv-117" value="实时出账" style="rounded=0;whiteSpace=wrap;html=1;fillColor=#fad7ac;strokeColor=#b46504;" vertex="1" parent="1">
          <mxGeometry x="1343" y="1619" width="57" height="28" as="geometry" />
        </mxCell>
        <mxCell id="1rxhkEu7ZFzacFnzr0Hv-118" value="" style="rounded=0;whiteSpace=wrap;html=1;fillColor=#dae8fc;strokeColor=#6c8ebf;" vertex="1" parent="1">
          <mxGeometry x="1022" y="1697" width="378" height="73" as="geometry" />
        </mxCell>
        <mxCell id="1rxhkEu7ZFzacFnzr0Hv-119" value="资金系统" style="rounded=0;whiteSpace=wrap;html=1;fillColor=#f8cecc;strokeColor=#b85450;" vertex="1" parent="1">
          <mxGeometry x="659" y="2739" width="84" height="30" as="geometry" />
        </mxCell>
        <mxCell id="1rxhkEu7ZFzacFnzr0Hv-122" value="技术架构：应用和部署" style="text;html=1;align=center;verticalAlign=middle;resizable=0;points=[];autosize=1;strokeColor=none;fillColor=none;" vertex="1" parent="1">
          <mxGeometry x="867" y="1370" width="140" height="30" as="geometry" />
        </mxCell>
      </root>
    </mxGraphModel>
  </diagram>
</mxfile>
